# xmcd
#
# Track frame offsets:
#	183
#	10485
#	20778
#	33593
#	44713
#	57385
#	71073
#	83993
#	97833
#	111650
#	123145
#	134968
#
# Disc length: 1962 seconds
#
# Revision: 3
# Processed by: cddbd v1.5.2PL0 Copyright (c) Steve Scherf et al.
# Submitted via: audiograbber 1.83.01
#
DISCID=b707a80c
DTITLE=Ray Charles - Confession Blues [CD3)
DYEAR=2001
DGENRE=Blues
TTITLE0=Sittin' on Top of the World
TTITLE1=Ain't That Fine
TTITLE2=Don't Put All Your Dreams in One Basket
TTITLE3=Let's Have a Ball
TTITLE4=You'll Always Miss The Water (When the Well Goes Dry)
TTITLE5=This Love of Mine
TTITLE6=Baby, Won't You Please Come Home
TTITLE7=Misery in my Heart
TTITLE8=Baby Let Me Hold Your Hand
TTITLE9=If I Give You My Love
TTITLE10=Can't You See Darling
TTITLE11=Honey Honey
EXTD=
EXTT0=
EXTT1=
EXTT2=
EXTT3=
EXTT4=
EXTT5=
EXTT6=
EXTT7=
EXTT8=
EXTT9=
EXTT10=
EXTT11=
PLAYORDER=
